<svg width="25" height="25" viewBox="0 0 25 25" fill="none" xmlns="http://www.w3.org/2000/svg">
<circle cx="12.2144" cy="12.2143" r="10.5" stroke="#EAFE76" stroke-opacity="0.5" stroke-width="0.375"/>
<circle cx="12.2144" cy="12.2143" r="12" stroke="#EAFE76" stroke-opacity="0.8" stroke-width="0.428571"/>
<circle cx="12.2144" cy="12.2143" r="9" fill="url(#paint0_linear_324_3282)" fill-opacity="0.15"/>
<path fill-rule="evenodd" clip-rule="evenodd" d="M11.6364 10.3856C11.9853 10.2532 12.2435 10.3824 12.3841 10.5365C12.4416 10.5997 12.4708 10.6315 12.4906 10.6353C12.5103 10.639 12.549 10.6202 12.6258 10.5825C12.8131 10.4905 13.1006 10.4651 13.3768 10.7162C13.7391 11.0458 13.6741 11.8939 12.5949 12.4145C12.3894 12.5137 12.2864 12.5627 12.1301 12.533C11.9738 12.5033 11.8959 12.42 11.7411 12.2523C10.928 11.3724 11.1785 10.5595 11.6364 10.3856Z" fill="url(#paint1_linear_324_3282)"/>
<path fill-rule="evenodd" clip-rule="evenodd" d="M10.7891 5.42365C11.2174 5.26119 11.5346 5.4197 11.7071 5.60897C11.7775 5.68621 11.8129 5.72518 11.8372 5.7301C11.8615 5.73471 11.9093 5.71156 12.0036 5.66528C12.2334 5.55253 12.5859 5.52131 12.9247 5.82931C13.3696 6.23383 13.29 7.27438 11.9652 7.91343C11.713 8.03509 11.5866 8.09598 11.3947 8.05954C11.2031 8.02303 11.1075 7.92007 10.9175 7.71443C9.91992 6.63451 10.2272 5.63719 10.7891 5.42365Z" fill="url(#paint2_linear_324_3282)"/>
<path fill-rule="evenodd" clip-rule="evenodd" d="M15.6364 11.3856C15.9853 11.2532 16.2435 11.3824 16.3841 11.5365C16.4416 11.5997 16.4708 11.6315 16.4906 11.6353C16.5103 11.639 16.549 11.6202 16.6258 11.5825C16.8131 11.4905 17.1006 11.4651 17.3768 11.7162C17.7391 12.0458 17.6741 12.8939 16.5949 13.4145C16.3894 13.5137 16.2864 13.5627 16.1301 13.533C15.9738 13.5033 15.8959 13.42 15.7411 13.2523C14.928 12.3724 15.1785 11.5595 15.6364 11.3856Z" fill="url(#paint3_linear_324_3282)"/>
<path d="M14.3351 14.912L14.0315 15.2317C14.0315 15.2317 13.3097 15.9916 11.3397 13.9175C9.36976 11.8435 10.0915 11.0836 10.0915 11.0836L10.2827 10.8823C10.7537 10.3864 10.7981 9.59021 10.3872 9.00896L9.54652 7.81997C9.03787 7.10056 8.05499 7.00553 7.47199 7.61932L6.42559 8.72099C6.13651 9.02534 5.94279 9.41986 5.96628 9.85752C6.02638 10.9772 6.50483 13.3862 9.17459 16.197C12.0057 19.1777 14.6622 19.2962 15.7485 19.189C16.0921 19.155 16.3909 18.9698 16.6317 18.7162L17.5788 17.7192C18.2181 17.0462 18.0378 15.8924 17.2199 15.4216L15.9462 14.6884C15.4091 14.3793 14.7549 14.4701 14.3351 14.912Z" fill="url(#paint4_linear_324_3282)"/>
<defs>
<linearGradient id="paint0_linear_324_3282" x1="12.2144" y1="3.21429" x2="12.2144" y2="21.2143" gradientUnits="userSpaceOnUse">
<stop stop-color="#EAFE76"/>
<stop offset="1" stop-color="#AECC00"/>
</linearGradient>
<linearGradient id="paint1_linear_324_3282" x1="11.6523" y1="10.6538" x2="12.686" y2="12.3527" gradientUnits="userSpaceOnUse">
<stop stop-color="#EAFE76"/>
<stop offset="1" stop-color="#AECC00"/>
</linearGradient>
<linearGradient id="paint2_linear_324_3282" x1="10.8086" y1="5.75288" x2="12.0776" y2="7.8379" gradientUnits="userSpaceOnUse">
<stop stop-color="#EAFE76"/>
<stop offset="1" stop-color="#AECC00"/>
</linearGradient>
<linearGradient id="paint3_linear_324_3282" x1="15.6523" y1="11.6538" x2="16.686" y2="13.3527" gradientUnits="userSpaceOnUse">
<stop stop-color="#EAFE76"/>
<stop offset="1" stop-color="#AECC00"/>
</linearGradient>
<linearGradient id="paint4_linear_324_3282" x1="7.81783" y1="9.34027" x2="15.3451" y2="16.843" gradientUnits="userSpaceOnUse">
<stop stop-color="#EAFE76"/>
<stop offset="1" stop-color="#AECC00"/>
</linearGradient>
</defs>
</svg>
