<svg width="32" height="30" viewBox="0 0 32 30" fill="none" xmlns="http://www.w3.org/2000/svg">
<path opacity="0.7" d="M14.8543 1.06169C16.0735 1.06169 17.2537 1.22618 18.3759 1.53089C17.6712 2.96409 17.4058 4.57428 17.6132 6.15841C17.8206 7.74253 18.4915 9.22966 19.5414 10.4322C20.5912 11.6348 21.9729 12.499 23.5123 12.9158C25.0517 13.3326 26.6797 13.2834 28.1912 12.7743C28.2693 13.3541 28.3092 13.9442 28.311 14.5446C28.311 21.9912 22.2864 28.0275 14.8543 28.0275C12.6439 28.0306 10.467 27.4859 8.51762 26.4419L1.39772 28.0275L2.98022 20.8937C1.93825 18.9405 1.39461 16.7593 1.39772 14.5446C1.39772 7.09798 7.42225 1.06169 14.8543 1.06169Z" fill="url(#paint0_linear_364_459)" stroke="#838383" stroke-width="2.12337"/>
<rect opacity="0.7" x="6.36816" y="10.4903" width="10.8244" height="1.66529" rx="0.832644" fill="url(#paint1_linear_364_459)" stroke="#838383" stroke-width="0.49"/>
<rect opacity="0.7" x="6.36816" y="13.8208" width="7.4938" height="1.66529" rx="0.832644" fill="url(#paint2_linear_364_459)" stroke="#838383" stroke-width="0.49"/>
<rect opacity="0.7" x="6.36816" y="17.1514" width="5.82851" height="1.66529" rx="0.832644" fill="url(#paint3_linear_364_459)" stroke="#838383" stroke-width="0.49"/>
<g opacity="0.7">
<path fill-rule="evenodd" clip-rule="evenodd" d="M26.1638 2.40204C26.8077 1.92444 27.88 1.62482 29.1081 2.36883C30.7196 3.34548 31.0842 6.56635 27.3669 9.28387C26.6588 9.80151 26.3043 10.0602 25.6901 10.0602C25.0761 10.0602 24.7222 9.80133 24.0143 9.28387C20.2967 6.56617 20.6614 3.34527 22.2731 2.36883C23.5012 1.62485 24.5726 1.92446 25.2165 2.40204C25.4802 2.59764 25.6124 2.69576 25.6901 2.69598C25.7678 2.69598 25.9 2.5977 26.1638 2.40204Z" fill="url(#paint4_linear_364_459)"/>
<path fill-rule="evenodd" clip-rule="evenodd" d="M26.1638 2.40204L25.5313 1.54931V1.54931L26.1638 2.40204ZM29.1081 2.36883L29.6584 1.46088L29.6582 1.46079L29.1081 2.36883ZM27.3669 9.28387L27.9934 10.141L27.9934 10.141L27.3669 9.28387ZM25.6901 10.0602L25.69 11.1219H25.6901V10.0602ZM24.0143 9.28387L24.6409 8.42678H24.6409L24.0143 9.28387ZM22.2731 2.36883L21.723 1.46078L21.723 1.46079L22.2731 2.36883ZM25.2165 2.40204L25.849 1.54931L25.849 1.5493L25.2165 2.40204ZM25.6901 2.69598L25.6871 3.75767H25.6901V2.69598ZM26.1638 2.40204L26.7962 3.25477C27.1443 2.99662 27.7497 2.78722 28.558 3.27688L29.1081 2.36883L29.6582 1.46079C28.0103 0.462422 26.471 0.85227 25.5313 1.54931L26.1638 2.40204ZM29.1081 2.36883L28.5578 3.27679C28.9362 3.50609 29.3101 4.10063 29.1838 5.03065C29.0599 5.94274 28.4288 7.19244 26.7403 8.42679L27.3669 9.28387L27.9934 10.141C30.0223 8.65778 31.0676 6.93828 31.2878 5.3164C31.5057 3.71243 30.8915 2.20822 29.6584 1.46088L29.1081 2.36883ZM27.3669 9.28387L26.7403 8.42678C26.3625 8.70301 26.1727 8.83795 26.0113 8.92023C25.8974 8.97823 25.8196 8.99855 25.6901 8.99855V10.0602V11.1219C26.7053 11.1219 27.3344 10.6227 27.9934 10.141L27.3669 9.28387ZM25.6901 10.0602L25.6903 8.99855C25.561 8.99854 25.4835 8.97826 25.3698 8.92029C25.2084 8.83797 25.0189 8.70308 24.6409 8.42678L24.0143 9.28387L23.3878 10.141C24.0461 10.6222 24.6749 11.1218 25.69 11.1219L25.6901 10.0602ZM24.0143 9.28387L24.6409 8.42678C22.9523 7.19233 22.3211 5.94258 22.1973 5.03051C22.071 4.10054 22.4449 3.50611 22.8233 3.27688L22.2731 2.36883L21.723 1.46079C20.4897 2.20799 19.8754 3.71223 20.0932 5.31625C20.3135 6.93816 21.3588 8.65771 23.3878 10.141L24.0143 9.28387ZM22.2731 2.36883L22.8232 3.27688C23.6314 2.78728 24.2359 2.99659 24.584 3.25477L25.2165 2.40204L25.849 1.5493C24.9093 0.852322 23.371 0.46243 21.723 1.46078L22.2731 2.36883ZM25.2165 2.40204L24.584 3.25477C24.7033 3.34322 24.835 3.44163 24.9463 3.5136C25.0037 3.55079 25.0876 3.60216 25.1866 3.64647C25.2777 3.68724 25.4566 3.75701 25.6871 3.75766L25.6901 2.69598L25.6931 1.6343C25.7938 1.63459 25.8756 1.65048 25.932 1.66551C25.9882 1.68051 26.0301 1.69764 26.0543 1.70846C26.079 1.71955 26.0951 1.72851 26.1004 1.73154C26.1062 1.7348 26.1065 1.73522 26.0999 1.73095C26.0852 1.72144 26.059 1.70347 26.0135 1.67054C25.9688 1.63814 25.9164 1.59932 25.849 1.54931L25.2165 2.40204ZM25.6901 2.69598V3.75767C25.922 3.75767 26.102 3.68755 26.1933 3.64672C26.2926 3.60231 26.3767 3.55079 26.4341 3.5136C26.5453 3.44163 26.6772 3.34309 26.7962 3.25477L26.1638 2.40204L25.5313 1.54931C25.4637 1.5994 25.4114 1.63825 25.3665 1.67071C25.321 1.7037 25.2948 1.72167 25.2801 1.73117C25.2736 1.73543 25.2739 1.73498 25.2797 1.73168C25.2851 1.72861 25.3013 1.71958 25.3263 1.70842C25.3506 1.69753 25.3929 1.68029 25.4495 1.66525C25.5063 1.65017 25.5888 1.6343 25.6901 1.6343V2.69598Z" fill="#838383"/>
</g>
<defs>
<linearGradient id="paint0_linear_364_459" x1="14.8543" y1="28.0275" x2="14.8543" y2="1.06169" gradientUnits="userSpaceOnUse">
<stop offset="1" stop-color="#22222D"/>
</linearGradient>
<linearGradient id="paint1_linear_364_459" x1="11.7804" y1="12.1556" x2="11.7804" y2="10.4903" gradientUnits="userSpaceOnUse">
<stop offset="1" stop-color="#3D3D3D"/>
</linearGradient>
<linearGradient id="paint2_linear_364_459" x1="10.1151" y1="15.4861" x2="10.1151" y2="13.8208" gradientUnits="userSpaceOnUse">
<stop offset="1" stop-color="#3D3D3D"/>
</linearGradient>
<linearGradient id="paint3_linear_364_459" x1="9.28242" y1="18.8167" x2="9.28242" y2="17.1514" gradientUnits="userSpaceOnUse">
<stop offset="1" stop-color="#3D3D3D"/>
</linearGradient>
<linearGradient id="paint4_linear_364_459" x1="25.6905" y1="10.0602" x2="25.6905" y2="1.91909" gradientUnits="userSpaceOnUse">
<stop offset="1" stop-color="#3D3D3D"/>
</linearGradient>
</defs>
</svg>
